<svg xmlns="http://www.w3.org/2000/svg"><symbol viewBox="0 0 179.4 42.7" id="icon-an-svg"><title>icon-an-svg</title><path d="M2.5 3.7C5.5 1.8 10.6.2 14.4.2c6.4 0 9.3 4.3 9.3 9.7v19.7h-4.2c-.4-1-.6-2-.6-3.2-1.7 2.1-4.9 4.2-8.6 4.2-7 .1-10.3-4.8-10.3-10 0-4.9 2.6-9.9 10.1-9.9 2.8 0 5.8.6 8.7 1.5v-1.1c0-4.6-1.5-7-5-7-2.9 0-6.1 1-9.3 3.1l-2-3.5zm16.3 12.1c-1.9-.8-5.1-1.7-7.9-1.7-4.2 0-6 2.4-6 6 0 4.1 1.7 6.8 6 6.8 2.8 0 5.8-1.9 7.9-4.5v-6.6zM36.6 1c.2.6.5 2 .6 3.8C39.5 2.2 43.6.2 47.5.2c6.6 0 9.8 4.5 9.8 10.4v19h-4.9V12c0-10.4-9.3-9.1-15.1-3v20.7h-4.9V1h4.2zm46.2 21.9c2.1 2.6 5.4 3.8 8.4 3.8 3.2 0 6.2-1.8 6.2-5.3 0-3.1-2.9-4.6-7.5-5.7-5.6-1.4-8.8-2.7-8.8-7.3 0-5 4.1-8 9.8-8 3.5 0 7.5 1.1 10.1 2.7l-1.5 3.4C97.1 5.1 94.1 4 91.3 4c-2.4 0-5.7.9-5.7 4.1 0 2.6 2.8 3.2 6.8 4.2 6.1 1.6 9.6 3.7 9.6 8.8 0 6.5-5.2 9.5-10.6 9.5-5.6 0-9.2-2.3-11-4.3l2.4-3.4zm37.8 8.5L106.8 1h5.3l8.6 20.2L129 1h4.6l-13 30.4zm44.4-3.8c0 10-3.9 15.1-13.2 15.1-4.4 0-9.6-1.5-11.8-3.7l1.7-3.6c2.1 1.7 5.8 3.5 10.5 3.5 5.1 0 7.9-3.1 7.9-9.2V26c-2.6 2.9-5.7 4.4-9.2 4.4-8.4 0-12.6-6.5-12.6-15.1 0-8.7 4.1-15.2 12.6-15.2 3.5 0 6.5 1.4 9.2 4.2.1-1.1.2-2 .6-3.2h4.3v26.5zm-5-18.3c-1.7-3.3-4.8-5.6-8.7-5.6-5.3 0-7.7 4.7-7.7 11.5s2.4 11.5 7.7 11.5c3.9 0 7-2.3 8.7-5.6V9.3zm19.4 18c0 1.5-1.3 2.9-2.9 2.9s-2.9-1.5-2.9-2.9c0-1.8 1.3-2.9 2.9-2.9s2.9 1.1 2.9 2.9z"/></symbol><symbol viewBox="0 0 360 424" id="icon-gruntjs"><title>icon-gruntjs</title><path fill="#FBA919" d="M67.892 81.42s5.737 22.127 6.555 29.503c.82 7.375-14.75 23.765-14.75 31.96 0 8.197 3.273 22.948 21.305 30.325 18.032 7.376 20.488 26.224 20.488 37.7 0 11.473-6.555 33.598-6.555 33.598s-4.096 54.908 18.03 64.742c22.124 9.833 17.21 9.833 22.124 9.833 4.914 0 40.975 14.757 62.28 9.02 21.31-5.738 27.04-12.293 27.04-12.293s21.31 1.637 27.867-17.214c6.56-18.847 10.654-58.183 8.195-76.214-2.46-18.033-5.736-41.795 9.014-49.99 14.755-8.198 30.324-18.03 27.865-26.226-2.46-8.196-15.567-19.67-15.567-19.67s-3.28-20.487-.822-25.405c2.458-4.918 17.21-17.214 9.015-26.227-8.19-9.014-22.947-9.014-22.947-9.014l-18.848 1.636s-31.96-28.682-73.757-27.043c-41.794 1.64-68.02 27.043-68.02 27.043s-13.93-4.918-26.225 0c-12.294 4.92-14.745 0-12.288 13.934z"/><path fill="#E78724" d="M142.775 203.437s-16.23 24.815-28.133 42.425c-1.842 2.724 11.904 2.913 11.904 2.913l16.23-45.338zm7.727-51.447s-4.892 12.204-7.572 18.674c-2.91 7.034-14 10.533-14 10.533s5.75-6.03 5.75-21.306c0-6.407 8.274-8.955 8.274-8.955l7.548 1.055zm-4.942 6.9s-10.023 11.93-28.633 5.25c-18.614-6.68-20.522-30.546-20.522-37.228 0-6.682 35.317 6.682 40.09 9.546 4.774 2.864 13.836 14.317 9.065 22.432zM75.26 31.4s17.18-3.344 28.634 5.725c11.458 9.067 14.794 16.228 14.794 16.228L99.383 68.656S90.055 64.33 87.19 51.92c-2.862-12.408-.953-18.134-11.93-20.52zm65.29 93.027c-7.398-10.5-19.588-15.08-29.32-15.84-16.597-1.297-24.476 4.57-24.476 4.57s27.18 1.15 35.014 11.44c14.584 19.15 35.86 20.706 39.262 16.5-3.934.197-8.262-1.752-12.894-6.132-2.894-2.74-5.24-7.205-7.587-10.538zm-45.884 37.127S64.51 151.187 70.24 140.69c5.727-10.503 1.17-16.223 1.17-16.223s-16.84 12.57-12.55 25.932c2.638 8.2 7.062 14.14 31.355 25.523 11.652 21.643 2.406 60.6 2.96 60.783.923.307 16.36-7.63 15.306-44.077-.32-11.193-1.214-26.47-13.813-31.077zm39.518-111.48c-12.645 6.424-29.968 15.37-29.968 15.37l6.818 3.41c-.65 1.055-.965 1.684-.965 1.684l6.996 3.182s17.083 12.375 27.55 20.33c-3.49-10.745-13.734-27.627-13.734-27.627s-2.903-7.757 3.3-16.35zm42.006 261.86c-38.865 0-52.03-19.73-52.03-19.73l6.074 14.79c2.296 6.4 26.788 26.31 45.898 26.31"/><path fill="#E78724" d="M128.42 278.87s3.575 21.855 17.893 21.855c12.167 0 15.752-18.46 15.752-22.275l-33.646.42zm-23.828-32.958c1.272-3.502 5.726-17.66 7.157-30.545 1.713-15.432 1.09-38.003 1.09-38.003s-3.82 14.795-7.163 17.186c-3.34 2.385-9.545 18.61-9.545 18.61s-3.324 24.156-4.906 32.275c4.378.878 8.063-1.703 13.365.477zm-34.576-95.75s8.11-2.866 10.5-20.522c2.385-17.66-2.866-32.932-2.866-32.932s.477 24.34-2.385 29.114c-2.866 4.77-5.25 6.203-8.592 12.41-3.343 6.207 1.43 10.02 3.343 11.93z"/><path fill="#87CCEE" d="M113.063 69.06"/><path fill="#FDC168" d="M79.7 35.576l-1.655-1.05c-4.883.166 1.656 1.05 1.656 1.05z"/><path fill="#FBA919" d="M140.786 44.846s-7.634-1.272-11.454-6.998c-3.82-5.728-14.636-17.184-31.88-17.312-17.24-.13-34.3 4.583-34.3 4.583l14.89 9.407c1.576-.05 4.33-.03 8.884.122 18.688.62 21.565 19.105 21.565 19.105l65.864-9.07"/><path fill="#fff" d="M147.15 146.942s-8.91 8.91-22.592 6.044c-13.683-2.862-21.957-8.908-22.593-19.41-.636-10.5 2.866-14.635 2.866-14.635s15.273 4.778 22.595 11.14c7.318 6.364 12.726 16.546 19.727 16.863z"/><path fill="#C9C9C9" d="M136.368 143.76s-7.727 3.53-16.364.654c-11.306-3.77-12.06-15.53-12.06-15.53s-6.935 20.355 12.51 24.273c15.598 3.142 24.822-5.896 24.822-5.896l-8.908-3.5z"/><path fill="#463014" d="M145.25 257.84M141.86 40.528c-.832-17.455 13.478-31.36 18.436-31.95.274 2.957-.276 14.495 4.68 18.043C166.42 17.2 171.3 6.81 190.57 0c-4.127 10.946-.55 20.115 1.152 24.365 13.16-11.944 22.025-9.97 22.025-9.97s-9.143 15.777-5.567 26.13c-26.416-2.072-66.192 2.806-66.32.003zm-56.003 26.59c-6.303-5.23-1.605-10.083-2.103-16.024-.27-3.16-.52-6.144-1.563-7.79-5.8-9.158-19.48-11.937-19.62-11.966l-6.42-1.258 4.25-4.973c.55-.643 18.01-17.3 45.026-8.58 18.898 6.096 32.888 26.764 33.41 27.6l-9.477 4.454c-.11-.174-11.17-19.6-27.385-24.83-13.106-4.227-25.185-.204-30.36 2.433 5.5 2.196 12.692 6.195 17.025 13.036 2.043 3.23 2.388 7.3 2.72 11.237.44 5.215.85 10.138 4.69 13.326l-10.193 3.335zM69.023 143.45s7.94-9.847 10.294-29.008c.924-7.547-.717-22.433-3.343-28.16.477 14.08-3.102 28.16-3.102 28.16s-2.414 26.144-3.85 29.008zm41.872-86.278c-.004-.02-2.548-11.138-9.6-16.75-9.95-7.914-22.098-3.704-22.215-3.667l-1.764-5.45c.588-.19 14.473-4.565 27.27 4.43 12.872 9.046 14.417 17.246 14.55 18.152l-8.24 3.285zm-16.93 79.216s-4.167-5.964-3.418-12.523c.373-3.24 1.874-6.564 4.554-7.744 4.98-2.186 7.19 3.46 7.19 3.46s-7.01 1.73-8.325 16.81zM145.25 257.84M139.706 145.478c.174.325.263.507.263.507s-12.996 9.752-26.313-.144c-7.128-5.3-6.455-18.415-4.27-23.976 5.678 1.287 10.495 3.607 14.52 6.316-5.087-4.542-9.54-7.885-9.53-7.962l-5.782-1.637-11.24-3.852c-.144.857-4.244 20.074 7.59 33.168 5.245 5.806 29.835 18.808 41.51-3.424l-6.75 1.008zm-1.216 1.43c7.316 11.134 25.775 4.77 25.457-7 0 0-12.334 6.806-23.23-5.727-6.363-7.315-26.75-27.49-54.394-20.785 19.09 4.198 44.366 21.64 52.167 33.513zm6.76 110.932"/><path fill="#463014" d="M83.74 178.334c1.76 1.017 7.966 7.445 7.97 17.06 0 4.82-.48 29.04-2.866 43.835 3.59 2.33 6.09 2.826 9.663 5.203 1.79-17.136 3.072-41.972 2.474-51.998-.682-11.43-6.8-19.1-12.476-22.37-1.777-1.022-3.634-2.027-5.504-3.038-9.72-5.252-19.772-10.685-19.772-19.962 0-7.257 2.82-9.527 5.808-11.933l.322-.26c1.982-1.602 4.225-3.418 5.554-6.4 3.627-8.153 4.22-28.92 0-34.193-2.103-2.628-7.738-11.46-6.118-17.398.617-2.266 2.044-3.945 4.367-5.135 2.46-1.26 5.78-1.897 9.87-1.897 8.03 0 16.935 2.445 21.53 3.9 16.42 5.204 36.23 20.208 41.91 24.683l.276.21 3.634 2.527-2.274-3.803c-.14-.237-14.534-23.905-40.27-32.584-5.008-1.688-14.845-4.52-24.512-4.52-5.756 0-10.64 1.005-14.507 2.985-4.713 2.41-7.905 6.258-9.232 11.12-3.25 11.922 7.335 25.195 7.696 25.62 1.236 2.202 1.76 18.205-1.092 24.61-.392.884-1.467 1.753-2.828 2.85-.427.346-.904.704-1.41 1.087-4.02 3.036-10.103 7.623-10.103 18.196 0 14.47 14.662 22.313 26.445 28.62 1.934 1.04 3.78 2.023 5.447 2.985zm2.117-111.217c-6.303-5.228-1.605-10.082-2.103-16.023-.27-3.16-.52-6.144-1.563-7.79-5.8-9.158-19.48-11.937-19.62-11.966l-6.42-1.258 4.25-4.973c.55-.643 18.01-17.3 45.026-8.58 18.898 6.096 32.888 26.764 33.41 27.6l-9.477 4.454c-.11-.174-11.17-19.6-27.385-24.83-13.106-4.227-25.185-.204-30.36 2.433 5.5 2.196 12.692 6.195 17.025 13.036 2.043 3.23 2.388 7.3 2.72 11.237.44 5.215.85 10.138 4.69 13.326l-10.193 3.335zm-.205 1.073l-.407-.338c-4.674-3.88-3.845-7.7-3.042-11.397.365-1.706.75-3.47.594-5.28-.255-3.04-.5-5.91-1.416-7.36-5.52-8.72-18.87-11.514-19-11.54L54.358 30.7l5.317-6.216c.097-.116 11.306-11.43 30.29-11.43 5.175 0 10.477.86 15.752 2.564 19.724 6.36 33.795 27.79 33.928 28l.57.91-11.21 5.273-.45-.712c-1.207-2.056-11.836-19.583-26.87-24.433-3.693-1.192-7.583-1.794-11.56-1.794-7.203 0-13.044 1.964-16.152 3.28 5.194 2.34 11.493 6.278 15.48 12.564 2.167 3.424 2.517 7.61 2.86 11.652.423 5.028.822 9.756 4.35 12.684l1.33 1.102-12.34 4.047zm25.243-11.018c-.004-.02-2.548-11.138-9.6-16.75-9.95-7.914-22.098-3.704-22.215-3.667l-1.764-5.45c.588-.19 14.473-4.565 27.27 4.43 12.872 9.046 14.417 17.246 14.55 18.152l-8.24 3.285zm-.683 1.3l-.248-1.094c-.026-.107-2.52-10.844-9.266-16.207-3.844-3.06-8.48-4.613-13.77-4.613-4.13 0-7.2.986-7.535 1.102l-.912.302-2.364-7.267.907-.294c.407-.13 4.092-1.28 9.305-1.28 6.877 0 13.38 2.02 18.81 5.834 13.196 9.273 14.807 17.848 14.945 18.794l.116.747-9.987 3.978zM86.928 34.65c5.652 0 10.83 1.738 14.96 5.024 5.99 4.77 8.807 13.19 9.66 16.21l6.49-2.586c-.587-2.292-3.175-9.17-13.998-16.78-5.18-3.64-11.136-5.484-17.712-5.484-3.608 0-6.41.574-7.796.924l1.17 3.62c1.358-.367 3.972-.928 7.226-.928zm58.787 260.832c-2.82 0-5.698-1.023-7.693-2.75-1.527-1.316-6.69-6.06-8.968-11.87-.85-2.173-.66-3.91.574-5.162.85-.857 2.614-1.882 6.195-1.882l2.548-.004c3.038-.003 8.15-.003 12.52-.003h4.19c2.722 0 4.675.59 5.8 1.74 1.44 1.48.98 3.366.575 4.36-.702 1.736-3.607 7.392-8.525 12.65-1.762 1.884-4.325 2.923-7.215 2.923zm2.955-147.92l-10.18-.655s2.602 4.588 4.288 10.522c1.904 6.71-1.74 16.52-1.74 16.52s13.575-15.37 7.633-26.39zm-12.71 174.805c-36.238-2.785-48.988-37.028-48.988-44.16l9.464.004-4.732-.002h4.732c.047 3.083 9.678 32.375 40.25 34.726l-.725 9.434z"/><path fill="#fff" d="M125.777 261.016c-.566-3.273-.625-6.377.066-9.427-2.754-2.07-7.696-2.84-11.404-4.043-3.034-1.92-18.55 1.967-29.807-11.656-14.104-17.06-11.136-27.243-11.136-27.243-3.616 4.018-7.12 2.487-12.633 21.22-5.52 18.74 2.59 31.802 17.708 44.916 7.142 6.195 17.238 8.747 25.922 9.724-2.91-2.92 4.97-3.213 10.4-5.245-.434-4.384.29-8.64 3.56-12.067 1.97-2.066 4.507-3.3 7.138-4.285.147-.34.27-.653.41-.98-.086-.297-.17-.598-.226-.914z"/><path fill="#C9C9C9" d="M114.82 279.15c-.313-.92-.55-1.86-.783-2.803-.252-1.03-1.5-3.952.04-.617-.396-.853-.655-1.734-.846-2.62-24.48-.032-45.78-16.84-41.663-52.18-3.205-4.255-7.693 8.58-7.693 8.58s-12.256 35.588 19.398 49.38c10.548 4.6 19.87 7.898 22.068 6.567 4.58.93 8.716-2.263 10.267-4.363-.292-.645-.557-1.29-.784-1.945z"/><path fill="#463014" d="M125.336 255.892c.038-2.983.647-5.872 2.09-8.75.1-.2.217-.39.325-.582-9.42-.08-20.27-.983-29.51-4.68-10.153-4.063-22.856-17.96-25.04-34.288 0 0-19.123 14.758-13.503 46.346C64.97 283.6 89.792 293.27 118.1 294.906c.015-.192-3.184-6.8-2.173-10.845-16.074 1.17-34.05-5.04-42.726-19.32-7.942-13.066-5.714-35.377-2.45-38.646 7.964 25.13 36.62 30.237 54.587 29.8zm50.854 38.948"/><path fill="#463014" d="M128.302 237.902c-5.094 14.95-15.5 27.047-15.5 27.047s14.314-.653 15.104-3.186c.585-1.867 12.924-30.752 17.66-64.59-4.455 7.32-16.828 39.447-17.264 40.727z"/><path fill="#E78724" d="M209.393 203.437s16.225 24.815 28.133 42.425c1.842 2.724-11.908 2.913-11.908 2.913l-16.225-45.338zm-7.73-51.447s4.894 12.204 7.57 18.674c2.91 7.034 14 10.533 14 10.533s-5.75-6.03-5.75-21.306c0-6.407-8.272-8.955-8.272-8.955l-7.545 1.055zm4.942 6.9s10.023 11.93 28.638 5.25c18.614-6.683 20.522-30.546 20.522-37.228 0-6.682-35.317 6.682-40.09 9.546-4.775 2.864-13.84 14.317-9.07 22.432zm70.3-127.49s-17.18-3.344-28.636 5.725c-11.455 9.067-14.797 16.228-14.797 16.228l19.306 15.302s9.33-4.325 12.195-16.735c2.862-12.408.954-18.134 11.93-20.52zm-65.287 93.027c7.397-10.5 19.583-15.08 29.32-15.84 16.597-1.297 24.472 4.57 24.472 4.57s-27.18 1.15-35.015 11.44c-14.585 19.15-35.854 20.706-39.256 16.5 3.93.197 8.26-1.752 12.89-6.132 2.893-2.74 5.24-7.205 7.587-10.538zm45.882 37.127s30.154-10.367 24.427-20.865c-5.726-10.504-1.172-16.224-1.172-16.224s16.843 12.57 12.548 25.932c-2.637 8.2-7.06 14.14-31.354 25.524-11.654 21.643-2.408 60.6-2.96 60.783-.923.307-16.36-7.63-15.304-44.077.32-11.192 1.215-26.47 13.814-31.076zm-39.516-111.48c12.64 6.424 29.967 15.37 29.967 15.37l-6.815 3.41c.65 1.055.966 1.684.966 1.684l-6.997 3.182s-17.084 12.375-27.55 20.33c3.485-10.745 13.73-27.627 13.73-27.627s2.907-7.757-3.298-16.35zm-42.007 261.86c38.86 0 52.025-19.73 52.025-19.73l-6.07 14.79c-2.296 6.4-26.79 26.31-45.896 26.31"/><path fill="#E78724" d="M223.748 278.87s-3.58 21.855-17.894 21.855c-12.165 0-15.75-18.46-15.75-22.275l33.644.42zm23.827-32.958c-1.273-3.502-5.726-17.66-7.16-30.545-1.716-15.432-1.087-38.003-1.087-38.003s3.82 14.795 7.156 17.186c3.344 2.385 9.546 18.61 9.546 18.61s3.324 24.156 4.906 32.275c-4.377.878-8.06-1.703-13.36.477zm34.58-95.75s-8.116-2.866-10.5-20.522c-2.386-17.66 2.864-32.932 2.864-32.932s-.48 24.34 2.383 29.114c2.866 4.773 5.25 6.203 8.592 12.41 3.338 6.205-1.435 10.02-3.342 11.93z"/><path fill="#87CCEE" d="M239.106 69.06"/><path fill="#FDC168" d="M272.465 35.576l1.66-1.05c4.883.166-1.66 1.05-1.66 1.05z"/><path fill="#FBA919" d="M211.378 44.846s7.638-1.272 11.454-6.998c3.82-5.728 14.64-17.184 31.883-17.312 17.242-.13 34.3 4.583 34.3 4.583l-14.89 9.407c-1.576-.05-4.33-.03-8.888.122-18.685.62-21.562 19.105-21.562 19.105l-65.86-9.07"/><path fill="#fff" d="M205.016 146.942s8.91 8.91 22.59 6.044c13.684-2.862 21.957-8.908 22.594-19.41.635-10.5-2.863-14.635-2.863-14.635s-15.275 4.778-22.593 11.14c-7.318 6.366-12.726 16.546-19.728 16.863z"/><path fill="#C9C9C9" d="M215.796 143.76s7.73 3.53 16.364.654c11.31-3.77 12.062-15.53 12.062-15.53s6.932 20.355-12.514 24.273c-15.594 3.142-24.82-5.896-24.82-5.896l8.908-3.5z"/><path fill="#463014" d="M206.916 257.84M266.31 67.117c6.302-5.228 1.608-10.082 2.106-16.023.266-3.16.516-6.144 1.56-7.79 5.8-9.158 19.482-11.937 19.623-11.966l6.42-1.258-4.25-4.973c-.55-.643-18.01-17.3-45.03-8.58-18.895 6.096-32.885 26.764-33.405 27.6l9.472 4.454c.115-.174 11.176-19.6 27.39-24.83 13.104-4.227 25.183-.204 30.354 2.433-5.496 2.196-12.69 6.195-17.023 13.036-2.044 3.23-2.386 7.3-2.718 11.237-.44 5.215-.855 10.138-4.694 13.326l10.192 3.335zm16.83 76.333s-7.936-9.847-10.29-29.008c-.923-7.547.715-22.433 3.34-28.16-.477 14.08 3.105 28.16 3.105 28.16s2.414 26.144 3.845 29.008zm-41.87-86.278c.005-.02 2.55-11.138 9.603-16.75 9.948-7.914 22.097-3.704 22.21-3.667l1.77-5.45c-.59-.19-14.474-4.565-27.274 4.43-12.875 9.046-14.416 17.246-14.554 18.152l8.244 3.285zm16.933 79.216s4.166-5.964 3.413-12.523c-.37-3.24-1.87-6.564-4.55-7.744-4.98-2.186-7.187 3.46-7.187 3.46s7.007 1.73 8.322 16.81zM206.916 257.84M212.46 145.478c-.173.325-.263.507-.263.507s12.99 9.752 26.307-.144c7.133-5.3 6.46-18.415 4.27-23.976-5.675 1.287-10.49 3.607-14.52 6.316 5.09-4.542 9.544-7.885 9.528-7.962l5.787-1.637 11.237-3.85c.144.857 4.243 20.074-7.595 33.17-5.244 5.805-29.834 18.807-41.506-3.425l6.754 1.004zm1.214 1.43c-7.316 11.134-25.77 4.77-25.45-7 0 0 12.33 6.806 23.226-5.727 6.362-7.315 26.752-27.49 54.397-20.785-19.09 4.198-44.37 21.64-52.173 33.513zm-6.758 110.932"/><path fill="#463014" d="M268.43 178.334c-1.76 1.017-7.97 7.445-7.97 17.06-.004 4.82.477 29.04 2.866 43.835-3.59 2.33-6.09 2.826-9.664 5.203-1.79-17.136-3.076-41.972-2.474-51.998.683-11.43 6.8-19.1 12.474-22.37 1.777-1.022 3.635-2.027 5.51-3.038 9.72-5.252 19.77-10.685 19.77-19.962 0-7.257-2.825-9.527-5.81-11.933l-.32-.26c-1.98-1.602-4.227-3.418-5.553-6.4-3.63-8.153-4.224-28.92-.006-34.193 2.103-2.628 7.742-11.46 6.122-17.398-.62-2.266-2.05-3.945-4.37-5.135-2.46-1.26-5.776-1.897-9.868-1.897-8.026 0-16.937 2.445-21.528 3.9-16.42 5.204-36.23 20.208-41.914 24.683-.162.125-.256.198-.274.21l-3.636 2.527 2.273-3.803c.144-.237 14.535-23.905 40.272-32.584 5.008-1.688 14.844-4.52 24.512-4.52 5.756 0 10.635 1.005 14.506 2.985 4.715 2.41 7.905 6.258 9.233 11.12 3.25 11.922-7.336 25.195-7.697 25.62-1.234 2.202-1.756 18.205 1.09 24.61.393.884 1.468 1.753 2.832 2.85.426.346.9.704 1.408 1.087 4.023 3.036 10.102 7.623 10.102 18.196 0 14.47-14.662 22.313-26.44 28.62-1.937 1.04-3.784 2.023-5.447 2.985zm-17.49-112.92c-2.332-3.95-8.296-11.576-22.042-18.28-15.34-7.475-33.094-11.27-52.777-11.28v-.003h-.074v.004c-19.686.01-37.443 3.805-52.78 11.28-13.745 6.704-19.707 14.33-22.04 18.28l-1.003 1.325 11.77 2.62.374-.47.197-.434c.182-.778 1.76-4.978 14.884-11.378 14.03-6.843 30.394-10.312 48.633-10.318 18.24.005 34.6 3.474 48.628 10.317 13.125 6.4 14.708 10.6 14.888 11.378l.196.432.37.47 11.775-2.62-.995-1.322zm15.37 1.703c6.302-5.228 1.608-10.082 2.106-16.023.266-3.16.516-6.144 1.56-7.79 5.8-9.158 19.482-11.937 19.623-11.966l6.42-1.258-4.25-4.973c-.55-.643-18.01-17.3-45.03-8.58-18.895 6.096-32.885 26.764-33.405 27.6l9.472 4.454c.115-.174 11.176-19.6 27.39-24.83 13.104-4.227 25.183-.204 30.354 2.433-5.496 2.196-12.69 6.195-17.023 13.036-2.044 3.23-2.386 7.3-2.718 11.237-.44 5.215-.855 10.138-4.694 13.326l10.192 3.335zm-12.132-2.97l1.326-1.103c3.53-2.928 3.926-7.657 4.352-12.684.342-4.045.695-8.23 2.862-11.652 3.982-6.284 10.286-10.222 15.48-12.563-3.11-1.317-8.952-3.28-16.156-3.28-3.98 0-7.862.602-11.556 1.794-15.04 4.85-25.666 22.375-26.87 24.43l-.45.714-11.21-5.27.57-.91c.133-.213 14.2-21.642 33.925-28.002 5.277-1.704 10.578-2.565 15.758-2.565 18.983 0 30.193 11.317 30.29 11.43l5.316 6.217-8.022 1.573c-.132.027-13.477 2.82-19.005 11.54-.916 1.45-1.156 4.318-1.416 7.362-.15 1.81.23 3.573.6 5.28.8 3.695 1.63 7.52-3.047 11.395l-.406.337-12.338-4.046zm-12.908-6.975c.005-.02 2.55-11.138 9.603-16.75 9.948-7.914 22.097-3.704 22.21-3.667l1.77-5.45c-.59-.19-14.474-4.565-27.274 4.43-12.875 9.046-14.416 17.246-14.554 18.152l8.244 3.285zm-9.295-2.677l.11-.747c.14-.946 1.753-9.52 14.946-18.794 5.43-3.814 11.934-5.832 18.81-5.832 5.216 0 8.9 1.147 9.31 1.278l.905.294-2.365 7.268-.914-.303c-.34-.117-3.41-1.104-7.537-1.104-5.29 0-9.925 1.552-13.77 4.615-6.745 5.366-9.242 16.1-9.265 16.208l-.248 1.09-9.983-3.975zm40.49-18.92l1.175-3.618c-1.386-.352-4.192-.924-7.8-.924-6.574 0-12.533 1.846-17.71 5.484-10.827 7.61-13.415 14.488-14.002 16.78l6.497 2.587c.85-3.02 3.664-11.442 9.656-16.21 4.137-3.287 9.308-5.025 14.96-5.025 3.25 0 5.868.56 7.226.925zM199.242 292.56c-4.917-5.258-7.826-10.915-8.53-12.653-.4-.99-.86-2.877.583-4.36 1.124-1.147 3.072-1.736 5.796-1.736h4.194c4.37 0 9.478 0 12.516.005l2.547.004c3.58 0 5.342 1.023 6.19 1.88 1.235 1.25 1.428 2.988.578 5.163-2.277 5.81-7.442 10.555-8.97 11.87-2 1.727-4.87 2.75-7.69 2.75-2.89 0-5.452-1.04-7.213-2.923zm4.256-144.998l10.176-.655s-2.6 4.588-4.285 10.522c-1.906 6.71 1.74 16.52 1.74 16.52s-13.578-15.37-7.633-26.39z"/><path fill="#E78724" d="M176.085 111.21c-6.49 0-14.95-.177-21.298-4.74 0 0 8.31 14.572 21.287 14.572l.01-1.844.012 1.844c12.976 0 21.287-14.57 21.287-14.57-6.348 4.56-14.815 4.74-21.298 4.74z"/><path fill="#463014" d="M193.952 111.14c-6.51 3.94-12.322 5.305-17.867 5.426-5.546-.12-11.357-1.486-17.867-5.425 0 0 9.48 11.57 17.82 11.658v.007c.014 0 .03-.004.046-.004.015 0 .03.005.047.005v-.007c8.34-.09 17.823-11.656 17.823-11.656zm22.255 211.227l-.726-9.435c30.568-2.35 40.198-31.643 40.248-34.726h9.464c.005 7.13-12.75 41.376-48.983 44.16z"/><path fill="#fff" d="M226.39 261.016c.568-3.273.623-6.377-.067-9.427 2.758-2.07 7.696-2.84 11.404-4.043 3.032-1.92 18.552 1.967 29.81-11.656 14.103-17.06 11.13-27.243 11.13-27.243 3.62 4.018 7.122 2.487 12.638 21.22 5.52 18.74-2.595 31.802-17.712 44.916-7.14 6.195-17.238 8.747-25.922 9.724 2.91-2.92-4.967-3.213-10.394-5.245.434-4.384-.295-8.64-3.563-12.067-1.967-2.066-4.507-3.3-7.136-4.285-.148-.34-.275-.653-.41-.98.086-.297.168-.598.223-.914z"/><path fill="#C9C9C9" d="M237.342 279.15c.318-.92.55-1.86.784-2.803.255-1.03 1.505-3.952-.038-.617.395-.853.655-1.734.846-2.62 24.482-.032 45.78-16.84 41.662-52.18 3.205-4.255 7.696 8.58 7.696 8.58s12.257 35.588-19.397 49.38c-10.547 4.6-19.867 7.898-22.067 6.567-4.585.93-8.72-2.263-10.267-4.363.29-.645.56-1.29.783-1.945z"/><path fill="#463014" d="M226.827 255.892c-.034-2.983-.647-5.872-2.085-8.75-.102-.2-.22-.39-.326-.582 9.42-.08 20.27-.983 29.51-4.68 10.154-4.063 22.857-17.96 25.04-34.288 0 0 19.126 14.758 13.506 46.346-5.28 29.662-30.097 39.332-58.404 40.968-.015-.192 3.185-6.8 2.173-10.845 16.07 1.17 34.047-5.04 42.73-19.32 7.94-13.066 5.71-35.377 2.446-38.646-7.96 25.13-36.62 30.237-54.588 29.8z"/><g fill="#463014"><path d="M175.977 294.84"/><path d="M238.258 263.332c-3.382-3.656-9.6-8.014-23.937-8.014l-38.186-.023h-.094c-11.006.008-38.195.023-38.195.023-14.333 0-20.55 4.36-23.935 8.014-4.93 5.32-5.702 12.723-2.293 21.975 9.06 24.626 21.794 49.645 64.42 49.68v.004l.046-.002c.015 0 .03.004.047.004v-.003c42.62-.038 55.354-25.055 64.418-49.68 3.41-9.253 2.636-16.655-2.29-21.976zm-6.636 20.248c-4.317 12.366-15.92 42.298-55.54 42.35-39.624-.052-51.222-29.983-55.54-42.35-2.388-6.86-2.206-11.938.56-15.092 1.89-2.156 6.23-4.73 16.12-4.73l10.333-.003c7.623-.007 17.194-.015 28.53-.02 11.33.005 20.906.013 28.527.02l10.33.004c9.893 0 14.232 2.57 16.122 4.727 2.763 3.157 2.947 8.23.558 15.092z"/></g><path fill="#463014" d="M223.863 237.902c5.094 14.95 15.498 27.047 15.498 27.047s-14.31-.653-15.1-3.186c-.58-1.867-12.92-30.752-17.658-64.59 4.453 7.32 16.826 39.447 17.263 40.727zM62.228 357.738c-1.906-1.15-4.04-2.16-6.35-2.996-2.29-.83-4.822-1.493-7.53-1.97-2.71-.478-5.636-.718-8.7-.718-5.933 0-11.394.888-16.228 2.64-4.85 1.76-9.048 4.265-12.477 7.443-3.443 3.184-6.125 7.024-7.973 11.417C1.126 377.93.193 382.79.193 388.007c0 5.127.98 9.95 2.91 14.332 1.928 4.38 4.63 8.215 8.028 11.41 3.394 3.19 7.458 5.723 12.09 7.53 4.624 1.802 9.718 2.72 15.143 2.72 2.98 0 5.803-.14 8.396-.424 2.602-.282 5.1-.734 7.423-1.34 2.32-.604 4.543-1.388 6.606-2.336 2.06-.942 4.07-2.087 5.965-3.394.347-.236.55-.628.55-1.047v-28.67c0-.7-.567-1.27-1.27-1.27h-25.69c-.702 0-1.27.57-1.27 1.27v11.474c0 .703.568 1.27 1.27 1.27h9.244v8.144c-1.283.456-2.64.835-4.05 1.128-1.69.354-3.67.534-5.89.534-2.865 0-5.54-.482-7.94-1.43-2.384-.937-4.47-2.32-6.196-4.106-1.738-1.792-3.123-4.027-4.113-6.65-1-2.64-1.506-5.717-1.506-9.15 0-3.1.46-5.94 1.363-8.446.897-2.485 2.187-4.64 3.826-6.396 1.633-1.752 3.647-3.13 5.98-4.097 2.344-.975 5.034-1.463 7.996-1.463 1.633 0 3.12.073 4.414.222 1.287.147 2.523.39 3.672.707 1.155.328 2.3.75 3.403 1.26 1.16.537 6.552 3.61 7.803 4.31.856.48 1.382.51 1.954-.3l7.268-10.61c.37-.523.288-1.247-.193-1.675-1.512-1.352-3.246-2.62-5.152-3.776zm63.786 39.922c-.793-1.224-1.745-2.282-2.828-3.145-.343-.273-.69-.53-1.05-.775 1.48-.683 2.848-1.48 4.08-2.373 1.898-1.376 3.526-2.963 4.836-4.723 1.32-1.77 2.326-3.72 2.994-5.8.667-2.078 1.003-4.304 1.003-6.634 0-3.05-.57-5.916-1.694-8.522-1.14-2.644-2.983-4.963-5.472-6.89-2.455-1.895-5.64-3.387-9.468-4.44-3.78-1.032-8.39-1.554-13.7-1.554h-23.51c-.7 0-1.27.568-1.27 1.27v67.912c0 .698.57 1.27 1.27 1.27H97.97c.703 0 1.27-.57 1.27-1.27V398.13h2.996c1.337 0 2.05.227 2.41.417.502.263.958.734 1.365 1.397l12.006 19.724c1.463 2.384 3.865 3.59 7.132 3.59h15.216c.706 0 1.274-.572 1.274-1.27 0-.366-.153-.696-.4-.927l-15.224-23.4zm-10.493-18.545c-.395 1.11-1.02 2.05-1.9 2.883-.893.834-2.063 1.502-3.483 1.982-1.463.497-3.286.75-5.42.75h-5.475v-17.595h5.477c4.01 0 6.967.754 8.793 2.235 1.77 1.438 2.63 3.4 2.63 6.005.003 1.34-.207 2.596-.62 3.74zm94.732-26.31H193.49c-.704 0-1.27.57-1.27 1.27V394.3c0 2.24-.305 4.258-.9 6-.586 1.697-1.435 3.15-2.527 4.32-1.09 1.158-2.444 2.065-4.03 2.69-3.224 1.274-7.894 1.274-11.12 0-1.58-.625-2.933-1.536-4.02-2.71-1.095-1.185-1.947-2.646-2.532-4.352-.592-1.73-.897-3.75-.897-5.996v-40.178c0-.7-.568-1.27-1.27-1.27H148.16c-.703 0-1.27.57-1.27 1.27v40.223c0 4.315.748 8.335 2.225 11.948 1.484 3.636 3.655 6.814 6.454 9.443 2.79 2.622 6.224 4.69 10.203 6.14 3.954 1.44 8.47 2.172 13.43 2.172 4.924 0 9.424-.732 13.383-2.17 3.98-1.453 7.408-3.52 10.202-6.142 2.8-2.63 4.978-5.804 6.48-9.435 1.494-3.62 2.25-7.643 2.25-11.953v-40.223c0-.7-.565-1.27-1.268-1.27zm78.95 0h-14.78c-.7 0-1.27.57-1.27 1.27v35.936c0 1.077.03 2.22.094 3.43l-31.793-37.78c-.513-.58-.967-1.044-1.366-1.386-.466-.397-.96-.705-1.462-.92-.503-.22-1.068-.365-1.688-.443-.536-.067-1.204-.1-1.992-.1h-8.83c-.698 0-1.268.567-1.268 1.27v67.91c0 .7.57 1.27 1.268 1.27h14.78c.702 0 1.275-.57 1.275-1.27v-36.4c0-.903-.028-1.853-.083-2.87l31.554 37.473c.958 1.147 1.99 1.96 3.07 2.414 1.045.434 2.313.654 3.763.654h8.73c.697 0 1.267-.57 1.267-1.27v-67.91c0-.706-.567-1.275-1.267-1.275zm69.33 0h-57.43c-.702 0-1.273.57-1.273 1.27v12.49c0 .7.57 1.272 1.27 1.272h19.064v54.15c0 .697.57 1.27 1.272 1.27h16.76c.7 0 1.27-.572 1.27-1.27v-54.15h19.062c.7 0 1.27-.57 1.27-1.272v-12.49c.003-.702-.568-1.27-1.268-1.27z"/></symbol><symbol viewBox="-298 391.8 14.5 11.2" id="icon-twitter"><title>icon-twitter</title><path d="M-288 391.8c-1.6 0-3 1.3-3 2.8 0 .2 0 .4.1.6-2.4-.1-4.6-1.2-6.1-2.9-.2.4-.4.9-.4 1.4 0 1 .5 1.8 1.3 2.3-.5.1-.9-.1-1.3-.3 0 1.4 1 2.5 2.4 2.8-.3.1-.5.1-.8.1-.2 0-.4 0-.6-.1.4 1.1 1.5 1.9 2.8 2-1 .8-2.3 1.2-3.7 1.2h-.7c1.3.8 2.9 1.3 4.6 1.3 5.5 0 8.5-4.3 8.5-8v-.4c.6-.4 1.1-.9 1.5-1.5-.5.2-1.1.4-1.7.4.6-.3 1.1-.9 1.3-1.6-.6.3-1.2.6-1.9.7-.6-.5-1.4-.8-2.3-.8"/></symbol></svg>