<svg xmlns="http://www.w3.org/2000/svg" viewBox="0 0 179.4 42.7" enable-background="new 0 0 179.4 42.7"><path d="M2.5 3.7C5.5 1.8 10.6.2 14.4.2c6.4 0 9.3 4.3 9.3 9.7v19.7h-4.2c-.4-1-.6-2-.6-3.2-1.7 2.1-4.9 4.2-8.6 4.2-7 .1-10.3-4.8-10.3-10 0-4.9 2.6-9.9 10.1-9.9 2.8 0 5.8.6 8.7 1.5v-1.1c0-4.6-1.5-7-5-7-2.9 0-6.1 1-9.3 3.1l-2-3.5zm16.3 12.1c-1.9-.8-5.1-1.7-7.9-1.7-4.2 0-6 2.4-6 6 0 4.1 1.7 6.8 6 6.8 2.8 0 5.8-1.9 7.9-4.5v-6.6zM36.6 1c.2.6.5 2 .6 3.8C39.5 2.2 43.6.2 47.5.2c6.6 0 9.8 4.5 9.8 10.4v19h-4.9V12c0-10.4-9.3-9.1-15.1-3v20.7h-4.9V1h4.2zm46.2 21.9c2.1 2.6 5.4 3.8 8.4 3.8 3.2 0 6.2-1.8 6.2-5.3 0-3.1-2.9-4.6-7.5-5.7-5.6-1.4-8.8-2.7-8.8-7.3 0-5 4.1-8 9.8-8 3.5 0 7.5 1.1 10.1 2.7l-1.5 3.4C97.1 5.1 94.1 4 91.3 4c-2.4 0-5.7.9-5.7 4.1 0 2.6 2.8 3.2 6.8 4.2 6.1 1.6 9.6 3.7 9.6 8.8 0 6.5-5.2 9.5-10.6 9.5-5.6 0-9.2-2.3-11-4.3l2.4-3.4zm37.8 8.5L106.8 1h5.3l8.6 20.2L129 1h4.6l-13 30.4zm44.4-3.8c0 10-3.9 15.1-13.2 15.1-4.4 0-9.6-1.5-11.8-3.7l1.7-3.6c2.1 1.7 5.8 3.5 10.5 3.5 5.1 0 7.9-3.1 7.9-9.2V26c-2.6 2.9-5.7 4.4-9.2 4.4-8.4 0-12.6-6.5-12.6-15.1 0-8.7 4.1-15.2 12.6-15.2 3.5 0 6.5 1.4 9.2 4.2.1-1.1.2-2 .6-3.2h4.3v26.5zm-5-18.3c-1.7-3.3-4.8-5.6-8.7-5.6-5.3 0-7.7 4.7-7.7 11.5s2.4 11.5 7.7 11.5c3.9 0 7-2.3 8.7-5.6V9.3zm19.4 18c0 1.5-1.3 2.9-2.9 2.9s-2.9-1.5-2.9-2.9c0-1.8 1.3-2.9 2.9-2.9s2.9 1.1 2.9 2.9z"/></svg>