<svg xmlns="http://www.w3.org/2000/svg" viewBox="0 0 120.775 117.793" enable-background="new 0 0 120.775 117.793"><path fill-rule="evenodd" clip-rule="evenodd" d="M60.388 0C27.04 0 0 27.035 0 60.388c0 26.68 17.303 49.316 41.297 57.302 3.018.56 4.126-1.31 4.126-2.905 0-1.44-.056-6.197-.082-11.243C28.54 107.195 25 96.417 25 96.417c-2.747-6.98-6.705-8.836-6.705-8.836-5.478-3.743.414-3.67.414-3.67 6.06.43 9.255 6.228 9.255 6.228 5.387 9.23 14.128 6.562 17.574 5.02.54-3.902 2.105-6.567 3.833-8.075C35.96 85.555 21.86 80.376 21.86 57.237c0-6.593 2.36-11.98 6.222-16.21-.627-1.52-2.694-7.662.585-15.98 0 0 5.07-1.623 16.61 6.19 4.817-1.338 9.983-2.01 15.115-2.033 5.132.024 10.302.694 15.128 2.033 11.526-7.813 16.59-6.19 16.59-6.19 3.287 8.317 1.22 14.46.593 15.98 3.873 4.23 6.216 9.617 6.216 16.21 0 23.194-14.13 28.3-27.577 29.796 2.165 1.876 4.095 5.55 4.095 11.185 0 8.08-.07 14.583-.07 16.572 0 1.606 1.087 3.49 4.147 2.896 23.98-7.994 41.263-30.622 41.263-57.294C120.778 27.034 93.74 0 60.39 0z"/><path d="M22.872 86.703c-.133.3-.605.39-1.035.185-.44-.197-.684-.606-.542-.907.13-.304.603-.39 1.04-.183.44.196.69.61.537.91zm-.743-.55l3.185 3.28c-.288.266-.852.142-1.233-.28-.396-.42-.47-.984-.177-1.255.297-.267.843-.142 1.238.28.396.425.473.983.172 1.254zm-.58-.62 6.15 7.377c-.37.257-.977.016-1.35-.522-.37-.537-.37-1.182.008-1.44.374-.257.97-.024 1.35.508.37.546.37 1.19-.01 1.453zm0 0l3.26 3.36c-.33.365-1.035.267-1.55-.23-.53-.487-.676-1.18-.345-1.544.336-.365 1.045-.263 1.564.23.52.487.68 1.182.33 1.544zm0 0l4.5 1.95c-.145.474-.824.69-1.508.487-.684-.207-1.13-.76-.992-1.238.142-.48.824-.7 1.513-.49.682.205 1.13.755.988 1.237zm0 0l4.943.362c.017.498-.564.91-1.28.92-.723.017-1.308-.387-1.315-.877 0-.503.567-.91 1.29-.924.717-.01 1.305.39 1.305.886zm0 0l4.6-.782c.085.485-.414.984-1.127 1.117-.7.13-1.35-.172-1.44-.653-.086-.498.422-.997 1.122-1.126.714-.124 1.353.168 1.444.662zm0 0"/></svg>