<svg xmlns="http://www.w3.org/2000/svg" viewBox="0 0 120.775 117.793" enable-background="new 0 0 120.775 117.793"><path fill-rule="evenodd" clip-rule="evenodd" d="M60.388 0C27.04 0 0 27.035 0 60.388c0 26.68 17.303 49.316 41.297 57.302 3.018.56 4.126-1.31 4.126-2.905 0-1.44-.056-6.197-.082-11.243C28.54 107.195 25 96.417 25 96.417c-2.747-6.98-6.705-8.836-6.705-8.836-5.478-3.74.414-3.67.414-3.67 6.06.43 9.25 6.23 9.25 6.23 5.386 9.23 14.13 6.56 17.573 5.02.54-3.9 2.105-6.563 3.833-8.07-13.41-1.53-27.51-6.71-27.51-29.848 0-6.593 2.36-11.98 6.22-16.21-.626-1.52-2.693-7.662.586-15.98 0 0 5.07-1.623 16.61 6.19 4.817-1.34 9.983-2.01 15.115-2.033 5.132.023 10.302.693 15.13 2.032 11.524-7.815 16.59-6.19 16.59-6.19 3.285 8.315 1.22 14.46.59 15.98 3.874 4.23 6.217 9.615 6.217 16.21 0 23.192-14.13 28.3-27.58 29.794 2.166 1.876 4.096 5.55 4.096 11.185 0 8.08-.07 14.58-.07 16.57 0 1.606 1.088 3.49 4.148 2.896 23.98-7.994 41.264-30.622 41.264-57.294C120.776 27.032 93.74 0 60.39 0z"/><path d="M22.872 86.703c-.133.3-.605.39-1.035.185-.44-.197-.684-.606-.542-.907.13-.3.603-.39 1.04-.18.44.2.69.61.537.91zm-.743-.55l3.18 3.28c-.29.266-.85.142-1.234-.28-.396-.42-.47-.984-.177-1.255.297-.267.843-.142 1.24.28.395.425.472.983.17 1.254zm-.58-.62l6.15 7.377c-.37.257-.98.016-1.35-.522-.37-.537-.37-1.182.002-1.44.374-.257.97-.024 1.35.508.37.546.37 1.19-.01 1.453zm0 0l3.26 3.36c-.33.365-1.04.267-1.55-.23-.53-.487-.68-1.18-.35-1.544.335-.37 1.044-.27 1.563.23.52.48.68 1.18.33 1.54zm0 0l4.5 1.95c-.15.474-.83.69-1.51.487-.688-.207-1.13-.76-.99-1.238.14-.48.82-.7 1.51-.49.68.205 1.13.755.99 1.237zm0 0l4.94.362c.014.498-.567.91-1.28.92-.726.017-1.31-.387-1.318-.877 0-.503.567-.91 1.29-.924.717-.01 1.305.39 1.305.886zm0 0l4.6-.782c.08.49-.42.99-1.13 1.12-.7.13-1.35-.17-1.44-.65-.09-.5.42-.997 1.12-1.126.713-.124 1.352.168 1.443.66zm0 0"/></svg>